<svg width="2400" height="2800" viewBox="0 0 2400 2800" fill="none" xmlns="http://www.w3.org/2000/svg">
<path d="M716.241 1109.04L1376.8 1108.82L1583.11 1108.72C1621.61 1108.7 1673.7 1107.19 1710.91 1110.89C1755.44 1115.05 1798.99 1126.43 1839.86 1144.57C1887.55 1166.05 1970.26 1219.07 1988.93 1269.8C1996.59 1290.59 1996.78 1322.24 1998.14 1344.5C2003.04 1424.81 1999.83 1488.8 1965.09 1563.16C1962.26 1562.87 1959.43 1562.59 1956.61 1562.33C1891.72 1556.37 1842.86 1563.3 1779.5 1579.24C1761.96 1584.09 1742.67 1586.7 1728.23 1598.57C1708.57 1615.68 1722.84 1644.42 1748.39 1640.56C1765.84 1637.92 1782.2 1631.84 1799.31 1627.6C1805.85 1625.97 1812.72 1624.31 1819.17 1622.49C1859.02 1611.29 1898.58 1612.05 1939.47 1612.39C1929.31 1634.03 1908.24 1666.75 1889.69 1681.02C1848.64 1673.89 1761.53 1665.74 1721.3 1684.76C1705.64 1692.16 1710.9 1724.05 1731.53 1726.8C1751.41 1729.45 1770.64 1727.33 1791.03 1726.75C1810.79 1726.12 1830.56 1726.78 1850.22 1728.71C1795.19 1783.23 1720.36 1838.2 1647.92 1866.99C1603.16 1884.78 1591.42 1921.82 1637.36 1926.74C1654.95 1928.64 1732.92 1882.94 1751.17 1872.08C1807.8 1901.79 1888.67 1966.59 1926.03 2018.24C1987.51 2102.51 2040.81 2189.5 2078.23 2286.51C2134.37 2432.04 2127.53 2616.73 1949.33 2670.63C1771.84 2724.31 1543.29 2670.99 1379.35 2593.4C1313.01 2562.01 1263.55 2512.32 1241.02 2442.36C1235.34 2424.7 1231.49 2406.5 1229.53 2388.03C1223.87 2333.78 1225.81 2274.7 1225.6 2219.94C1225.44 2178.58 1224.46 2136.6 1227.94 2095.45C1229.36 2078.75 1232.18 2059.53 1239.7 2044.43C1252.31 2018.65 1274.77 2009.8 1300.09 2024.93C1332.05 2050.25 1337.73 2094.7 1344.87 2133.08C1349.78 2159.48 1375.74 2169.88 1392.74 2146.14C1397.72 2139.17 1394.12 2117 1392.39 2107.63C1383.23 2058.16 1362.25 1996.85 1313.58 1973.3C1287.45 1960.7 1264.96 1964.62 1238.84 1974.31C1254.47 1937.97 1287.59 1903.21 1329.84 1919.79C1442.18 1965.4 1454.58 2133.71 1464.11 2236.43C1467.09 2268.57 1437.03 2336.48 1480.73 2343.73C1486.1 2344.66 1491.62 2343.11 1495.73 2339.52C1509.77 2327.31 1511.48 2290.93 1513.23 2272.7C1539.15 2278.89 1573.17 2291.19 1600.63 2298.58C1655.02 2313.1 1710.47 2323.31 1766.47 2329.14C1779.48 2330.57 1801.69 2334.56 1813.75 2330.03C1819.75 2327.74 1824.6 2323.14 1827.19 2317.25C1830.06 2310.69 1830.02 2303.24 1827.07 2296.74C1820.98 2283.31 1806.93 2281.41 1793.83 2280.23C1770.76 2278.14 1747.74 2275.87 1724.82 2272.33C1652.51 2261.19 1581.54 2242.52 1513.1 2216.66C1506.52 2138.95 1502 2096.23 1477.65 2022.47C1431.32 1893.43 1305.5 1789.29 1201.14 1930.19C1199.99 1928.4 1198.82 1926.61 1197.61 1924.84C1176.77 1893.97 1152.12 1873.49 1114.48 1865.87C1081.06 1859.11 1041.37 1870.9 1013.95 1891.19C939.754 1946.12 912.562 2048.44 898.013 2135C893.328 2162.89 891.928 2190.91 887.211 2218.56C816.69 2242.65 750.012 2261.3 676.372 2273.65C649.165 2278 621.377 2277.6 594.258 2282.43C578.642 2285.21 568.847 2300.39 573.797 2315.59C575.616 2321.28 579.658 2325.97 585.001 2328.64C598.829 2335.45 620.495 2331.19 635.654 2329.75C723.051 2321.48 806.44 2299.59 889.492 2272.05C891.131 2290.72 892.079 2335.57 911.107 2340.95C967.958 2357.07 937.264 2265.25 938.323 2243.15C941.737 2171.95 951.715 2101.46 975.676 2035.25C996.466 1977.79 1047.79 1897.58 1119.01 1920.91C1140.06 1928.19 1154.87 1952.67 1162.7 1973C1083.69 1946.69 1042.41 2000 1018.97 2070.83C1011.46 2093.55 992.828 2151.99 1028.74 2158.59C1055.3 2163.45 1058 2130.58 1062.02 2112.07C1067.35 2079.96 1089.89 2006.48 1135.47 2018.01C1159.04 2023.98 1170.92 2059.51 1173.25 2081.47C1177.98 2125.89 1176.69 2171.11 1177 2215.8C1175.98 2285.65 1182.23 2357.55 1166.59 2425.95C1151.68 2489.13 1106.76 2546.71 1049.72 2578.15C949.264 2633.5 828.306 2671.79 714.517 2684.9C601.999 2697.89 469.197 2699.53 374.239 2629.08C279.233 2558.62 280.059 2432.3 310.551 2329.36C333.19 2251.41 370.888 2179.01 414.25 2110.61C440.313 2069.49 467.692 2025.45 500.87 1989.73C544.531 1942.84 595.264 1903.04 651.229 1871.81C686.371 1890.13 723.524 1919.16 763.551 1926.01C788.439 1930.26 804.029 1895.79 778.454 1881.11C755.835 1868.13 732.138 1858.42 709.094 1846.12C652.062 1815.05 599.988 1775.64 554.6 1729.19C587.813 1725.86 620.503 1725.92 653.692 1728.08C679.762 1734.9 703.477 1700.66 681.173 1685.57C647.054 1662.48 545.895 1678.27 512.178 1680.82C492.988 1660.02 479.496 1637.43 466.109 1612.81C509.273 1609.64 552.662 1613.84 594.414 1625.23C613.212 1630.53 631.91 1637.46 651.24 1641.2C677.034 1646.2 693.285 1617.33 673.769 1599.26C660.744 1587.58 641.26 1584.81 625.292 1580C560.996 1560.64 507.178 1558.87 440.898 1561.29C423.365 1520.94 404.888 1452.56 403.725 1408.1C404.938 1372.65 398.113 1298.28 414.178 1266.32C463.746 1167.69 618.842 1113.09 716.241 1109.04ZM790.734 1297.56C772.953 1326.51 765.133 1353.54 773.568 1387.78C779.764 1413.91 796.378 1436.37 819.554 1449.94C843.144 1464.27 871.522 1468.45 898.242 1461.54C916.304 1456.83 934.437 1446.85 947.103 1433.02C967.82 1408.07 969.419 1398.31 977.045 1366.98C980.631 1372.56 989.938 1390.18 991.205 1396.73C997.219 1427.78 1036.75 1441.73 1045.48 1407.27C1050.85 1386.09 1019.68 1337.45 1007.1 1321.53C970.86 1275.57 916.504 1250.62 859.119 1244.8C847.449 1243.62 809.586 1242.14 797.948 1244.91C769.893 1247.7 662.179 1254.59 710.046 1304.67C719.318 1314.37 775.225 1299.65 790.734 1297.56ZM1423.92 1367.62C1433.87 1410.11 1447.35 1442.68 1491.66 1457.59C1548.5 1475.19 1607.45 1452.35 1625.51 1393.16C1633.84 1366.29 1630.97 1337.2 1617.57 1312.47C1614.77 1307.31 1611.68 1302.31 1608.3 1297.51C1619.06 1298.24 1627.61 1299.06 1639.72 1301.99C1665.39 1308.06 1694.59 1320.12 1701.43 1283C1703.7 1270.53 1684.45 1258.99 1674.5 1256.52C1639.87 1247.96 1579.9 1238.27 1544.68 1244.88C1461.2 1253 1395.21 1296.41 1361.32 1374.94C1357.25 1384.38 1353.72 1394.97 1354.12 1405.34C1355.19 1427.75 1388.26 1436.03 1399.62 1416.21C1409.1 1400.17 1413.62 1382.88 1423.92 1367.62ZM1174.42 1632.61C1156.72 1687.78 1129.55 1732.7 1062 1711.86C1044.48 1706.45 1033.29 1694.61 1014.67 1705.58C1003.14 1711.55 1000.77 1723.1 1007.45 1733.37C1034.55 1775.07 1112.55 1777.09 1151.6 1752.96C1173.72 1739.3 1185.68 1726.47 1200.56 1707.91C1206.99 1715.52 1214.37 1724.77 1220.94 1732.03C1234.52 1744.19 1246.77 1754.04 1265.35 1761.07C1300.76 1774.45 1357.28 1770.07 1386.27 1744.51C1395.56 1736.32 1399.87 1716.28 1388.8 1708.13C1372.41 1694.17 1350.6 1706.35 1333.72 1712.24C1269.73 1734.54 1243.21 1684.52 1225.07 1632.88C1354.55 1514.29 1306.51 1525.39 1155.68 1526.27C1155.09 1526.31 1154.51 1526.36 1153.93 1526.41C1140.62 1526.84 1095.48 1524.14 1099.79 1545.17C1104.99 1570.54 1155.77 1614.92 1174.42 1632.61Z" fill="white"/>
<path d="M1219.46 246.525C1230.28 245.927 1240.49 246.658 1251.15 246.615C1645.35 245.05 1998.06 507.38 2140.14 869.748C2165.4 934.124 2164.2 960.881 2164.06 1028.32L2163.89 1157.64C2163.92 1256.18 2165.7 1360.73 2163.03 1458.92C2126.28 1460.27 2087.46 1459.57 2050.5 1459.43C2050.62 1452.77 2050.67 1446.11 2050.71 1439.45C2050.97 1401.23 2051.1 1310.45 2043.98 1276.71C2016.51 1146.22 1815.69 1059.94 1694.31 1058.27C1623.7 1057.3 1559.74 1057.48 1493.45 1057.49L1181.5 1057.55H890.733C750.784 1057.44 635.392 1044.56 508.182 1112.99C472.887 1131.59 440.407 1155.09 411.713 1182.8C375.207 1218.45 356.09 1251.2 353.894 1303.06C351.705 1354.82 352.036 1406.36 351.379 1458.14L235.86 1458.26L235.817 1125.3C235.815 1084.22 233.443 963.489 241.662 929.633C275.55 790.03 378.753 638.973 476.334 537.749C628.486 379.916 821.907 279.141 1039.84 254.215C1109.17 246.285 1150.94 247.751 1219.46 246.525ZM1659.39 970.241C1667.92 966.78 1674.18 963.215 1677.91 954.375C1680.67 947.846 1681.9 939.593 1679.09 932.886C1676.89 927.643 1672.75 923.846 1667.4 921.947C1646.79 914.646 1401.67 918.977 1359.82 918.966L950.203 918.893C882.22 918.905 810.537 917.807 742.89 919.037C715.219 924.105 712.964 954.12 734.41 968.566C764.344 972.255 818.793 970.59 851.084 970.579L1057 970.482L1450.06 970.487C1518.85 970.487 1590.79 971.562 1659.39 970.241Z" fill="white"/>
<path d="M443.677 108.147C550.917 98.2019 681.387 208.758 755.105 278.966C730.138 292.012 705.152 302.978 680.059 316.449C621.936 347.442 567.501 384.898 517.788 428.104C466.339 469.976 417.053 522.505 375.8 574.373C353.096 463.491 322.21 256.836 379.695 153.691C393.929 128.149 415.657 114.972 443.677 108.147Z" fill="white"/>
<path d="M1922 108.285C2015.1 99.1805 2042.11 172.772 2050.75 251.603C2062.21 356.234 2044.75 471.215 2025.48 574.181C1993.63 532.287 1948.25 485.299 1909.96 450.264C1817.74 370.366 1758.43 332.263 1648.97 279.507C1716.81 215.264 1827.34 122.637 1922 108.285Z" fill="white"/>
</svg>
